<svg width="263" height="57" viewBox="0 0 263 57" fill="none" xmlns="http://www.w3.org/2000/svg">
<g clip-path="url(#clip0)">
<path fill-rule="evenodd" clip-rule="evenodd" d="M0 0H131.46V56.99H0V0ZM8.82 7.5H7.5V49.5H8.82V7.5ZM16.27 7.5H17.59V49.5H16.27V7.5ZM35.2299 7.5H33.9099V49.5H35.2299V7.5ZM51.55 49.5V7.5H52.87C54.87 7.5 57.4901 8.58 57.4901 17.58C57.4901 24.96 56.6501 26.46 53.6501 27.66C57.91 28.74 58 31.08 58 38.94C58 44.58 57.58 49.5 53 49.5H51.55ZM52.87 23.34C54.79 23.34 56.2901 22.26 56.2901 19.34C56.2901 16.42 54.79 15.34 52.87 15.34V23.34ZM52.87 42.06C56.59 42.06 56.87 39.24 56.87 36.9C56.87 34.56 56.63 31.74 52.87 31.74V42.06ZM63.85 7.5L60.73 49.5H62.11L62.93 38.94H67.93L68.71 49.5H70.12L67 7.5H63.85ZM67.37 31.74H63.37L64.57 15.9H66.25L67.37 31.74ZM72.8401 7.5V42.06C72.8401 46.38 74.2301 49.5 76.0901 49.5C77.9501 49.5 79.2001 46.38 79.2001 42.06V7.5H77.8801V37.14C77.8801 39.14 77.4201 41.14 76.0901 41.14C74.7601 41.14 74.2901 39.14 74.2901 37.14V7.5H72.8401ZM82.21 33.84V42.06C82.21 46.38 83.57 49.5 85.42 49.5C87.27 49.5 88.53 46.38 88.53 42.06V33.54C88.53 27.4954 87.0147 26.1786 85.6524 24.9947C84.5402 24.0282 83.53 23.1503 83.53 19.86C83.53 17.86 84 15.86 85.32 15.86C86.64 15.86 87.12 17.86 87.12 19.86V22.44H88.59V14.94C88.59 10.62 87.2 7.5 85.35 7.5C83.5 7.5 82.24 10.62 82.24 14.94V23.46C82.24 28.9087 83.6501 30.1721 84.9726 31.357C86.1404 32.4034 87.24 33.3885 87.24 37.14C87.24 39.14 86.77 41.14 85.45 41.14C84.13 41.14 83.64 39.14 83.64 37.14V33.84H82.21ZM93.78 15.9V49.5H95.1V15.9H97.84V7.5H91V15.9H93.78ZM100.32 7.5V49.5H106.32V41.1H101.64V31.74H106.32V24.18H101.64V15.9H106.32V7.5H100.32ZM109.14 7.5V49.5H115.14V41.1H110.46V7.5H109.14ZM118 7.5V49.5H124V41.1H119.32V7.5H118ZM44.05 7.5H42.73V49.5H44.05V7.5ZM26.4101 7.5H25.0901V49.5H26.4101V7.5Z" fill="#ED1C24"/>
</g>
<path d="M182.55 49.5V7.5H183.87C185.87 7.5 188.49 8.58 188.49 17.58C188.49 24.96 187.65 26.46 184.65 27.66C188.91 28.74 189 31.08 189 38.94C189 44.58 188.58 49.5 184 49.5H182.55ZM183.87 23.34C185.79 23.34 187.29 22.26 187.29 19.34C187.29 16.42 185.79 15.34 183.87 15.34V23.34ZM183.87 42.06C187.59 42.06 187.87 39.24 187.87 36.9C187.87 34.56 187.63 31.74 183.87 31.74V42.06Z" fill="#ED1C24"/>
<path d="M191.73 49.5L194.85 7.5H198L201.12 49.5H199.71L198.93 38.94H193.93L193.11 49.5H191.73ZM194.37 31.74H198.37L197.25 15.9H195.57L194.37 31.74Z" fill="#ED1C24"/>
<path d="M203.84 42.06V7.5H205.29V37.14C205.29 39.14 205.76 41.14 207.09 41.14C208.42 41.14 208.88 39.14 208.88 37.14V7.5H210.2V42.06C210.2 46.38 208.95 49.5 207.09 49.5C205.23 49.5 203.84 46.38 203.84 42.06Z" fill="#ED1C24"/>
<path d="M213.21 42.06V33.84H214.64V37.14C214.64 39.14 215.13 41.14 216.45 41.14C217.77 41.14 218.24 39.14 218.24 37.14C218.24 29.14 213.24 33.72 213.24 23.46V14.94C213.24 10.62 214.5 7.5 216.35 7.5C218.2 7.5 219.59 10.62 219.59 14.94V22.44H218.12V19.86C218.12 17.86 217.64 15.86 216.32 15.86C215 15.86 214.53 17.86 214.53 19.86C214.53 27.18 219.53 22.56 219.53 33.54V42.06C219.53 46.38 218.27 49.5 216.42 49.5C214.57 49.5 213.21 46.38 213.21 42.06Z" fill="#ED1C24"/>
<path d="M224.78 49.5V15.9H222V7.5H228.84V15.9H226.1V49.5H224.78Z" fill="#ED1C24"/>
<path d="M231.32 49.5V7.5H237.32V15.9H232.64V24.18H237.32V31.74H232.64V41.1H237.32V49.5H231.32Z" fill="#ED1C24"/>
<path d="M240.14 49.5V7.5H241.46V41.1H246.14V49.5H240.14Z" fill="#ED1C24"/>
<path d="M249 49.5V7.5H250.32V41.1H255V49.5H249Z" fill="#ED1C24"/>
<path d="M166.23 7.5H164.91V49.5H166.23V7.5Z" fill="#ED1C24"/>
<path d="M175.05 7.5H173.73V49.5H175.05V7.5Z" fill="#ED1C24"/>
<path d="M148.59 7.5H147.27V49.5H148.59V7.5Z" fill="#ED1C24"/>
<path d="M139.82 7.5H138.5V49.5H139.82V7.5Z" fill="#ED1C24"/>
<path d="M157.41 7.5H156.09V49.5H157.41V7.5Z" fill="#ED1C24"/>
<defs>
<clipPath id="clip0">
<rect width="131.46" height="56.99" fill="white"/>
</clipPath>
</defs>
</svg>
