<svg width="132" height="57" viewBox="0 0 132 57" fill="none" xmlns="http://www.w3.org/2000/svg">
<path d="M51.55 49.5V7.5H52.87C54.87 7.5 57.4901 8.58 57.4901 17.58C57.4901 24.96 56.6501 26.46 53.6501 27.66C57.9101 28.74 58 31.08 58 38.94C58 44.58 57.58 49.5 53 49.5H51.55ZM52.87 23.34C54.79 23.34 56.2901 22.26 56.2901 19.34C56.2901 16.42 54.79 15.34 52.87 15.34V23.34ZM52.87 42.06C56.59 42.06 56.87 39.24 56.87 36.9C56.87 34.56 56.63 31.74 52.87 31.74V42.06Z" fill="white"/>
<path d="M60.73 49.5L63.85 7.5H67L70.12 49.5H68.71L67.93 38.94H62.93L62.11 49.5H60.73ZM63.37 31.74H67.37L66.25 15.9H64.57L63.37 31.74Z" fill="white"/>
<path d="M72.84 42.06V7.5H74.29V37.14C74.29 39.14 74.76 41.14 76.09 41.14C77.42 41.14 77.88 39.14 77.88 37.14V7.5H79.2V42.06C79.2 46.38 77.95 49.5 76.09 49.5C74.23 49.5 72.84 46.38 72.84 42.06Z" fill="white"/>
<path d="M82.21 42.06V33.84H83.64V37.14C83.64 39.14 84.13 41.14 85.45 41.14C86.77 41.14 87.24 39.14 87.24 37.14C87.24 29.14 82.24 33.72 82.24 23.46V14.94C82.24 10.62 83.5 7.5 85.35 7.5C87.2 7.5 88.59 10.62 88.59 14.94V22.44H87.12V19.86C87.12 17.86 86.64 15.86 85.32 15.86C84 15.86 83.53 17.86 83.53 19.86C83.53 27.18 88.53 22.56 88.53 33.54V42.06C88.53 46.38 87.27 49.5 85.42 49.5C83.57 49.5 82.21 46.38 82.21 42.06Z" fill="white"/>
<path d="M93.78 49.5V15.9H91V7.5H97.84V15.9H95.1V49.5H93.78Z" fill="white"/>
<path d="M100.32 49.5V7.5H106.32V15.9H101.64V24.18H106.32V31.74H101.64V41.1H106.32V49.5H100.32Z" fill="white"/>
<path d="M109.14 49.5V7.5H110.46V41.1H115.14V49.5H109.14Z" fill="white"/>
<path d="M118 49.5V7.5H119.32V41.1H124V49.5H118Z" fill="white"/>
<path d="M35.23 7.5H33.91V49.5H35.23V7.5Z" fill="white"/>
<path d="M44.05 7.5H42.73V49.5H44.05V7.5Z" fill="white"/>
<path d="M17.59 7.5H16.27V49.5H17.59V7.5Z" fill="white"/>
<path d="M8.82 7.5H7.5V49.5H8.82V7.5Z" fill="white"/>
<path d="M26.41 7.5H25.09V49.5H26.41V7.5Z" fill="white"/>
</svg>
